<svg width="676" height="538" viewBox="0 0 676 538" fill="none" xmlns="http://www.w3.org/2000/svg">
<path d="M230.5 338V210.185L504.651 477.358L505.5 478.185V477V119.5V93.5V93H505H492H419H417.793L418.646 93.8536L444.5 119.707V325.825L230.351 119.644L230.347 119.64L195.351 85.1439L195.351 85.1439L195.347 85.1401L181.347 71.6401L181.041 71.3446L180.7 71.6L168.7 80.6L168.5 80.75V81V85.5V338V377V377.768L169.202 377.457L230.202 350.457L230.5 350.325V350V338Z" fill="black" stroke="black"/>
<path d="M182.5 40.5C182.5 61.4808 165.269 78.5 144 78.5C122.731 78.5 105.5 61.4808 105.5 40.5C105.5 19.5192 122.731 2.5 144 2.5C165.269 2.5 182.5 19.5192 182.5 40.5Z" fill="black" stroke="black"/>
<path d="M207.022 450.675L174.644 468.865L198.989 476.452L207.022 450.675Z" fill="black"/>
<mask id="path-4-inside-1_21_2" fill="black">
<path fill-rule="evenodd" clip-rule="evenodd" d="M138.077 87.9151C94.5425 135.711 68 199.256 68 269C68 319.866 82.118 367.434 106.649 408H141.174C114.15 369.101 98.3099 321.848 98.3099 270.894C98.3099 209.045 121.649 152.647 160 110.026V84.2191C154.157 86.6541 147.737 88 141 88C140.019 88 139.044 87.9715 138.077 87.9151ZM190.595 460.349L163.662 474.714C210.478 514.202 270.96 538 337 538C393.033 538 445.065 520.868 488.143 491.556L472.359 471.095C434.169 496.606 388.268 511.479 338.894 511.479C282.946 511.479 231.459 492.381 190.595 460.349ZM520.5 428.698V465.696C573.109 416.596 606 346.639 606 269C606 256.303 605.12 243.811 603.418 231.582L579.024 255.976C579.326 260.91 579.479 265.884 579.479 270.894C579.479 331.273 557.237 386.456 520.5 428.698ZM337 0C437.612 0 525.323 55.2361 571.462 137.038L551.087 157.413C510.544 81.7629 430.728 30.3099 338.894 30.3099C286.322 30.3099 237.687 47.1727 198.105 75.7846L184.066 62.6539C187.195 56.9639 189.207 50.5849 189.81 43.8056C232.101 16.1067 282.67 0 337 0Z"/>
</mask>
<path fill-rule="evenodd" clip-rule="evenodd" d="M138.077 87.9151C94.5425 135.711 68 199.256 68 269C68 319.866 82.118 367.434 106.649 408H141.174C114.15 369.101 98.3099 321.848 98.3099 270.894C98.3099 209.045 121.649 152.647 160 110.026V84.2191C154.157 86.6541 147.737 88 141 88C140.019 88 139.044 87.9715 138.077 87.9151ZM190.595 460.349L163.662 474.714C210.478 514.202 270.96 538 337 538C393.033 538 445.065 520.868 488.143 491.556L472.359 471.095C434.169 496.606 388.268 511.479 338.894 511.479C282.946 511.479 231.459 492.381 190.595 460.349ZM520.5 428.698V465.696C573.109 416.596 606 346.639 606 269C606 256.303 605.12 243.811 603.418 231.582L579.024 255.976C579.326 260.91 579.479 265.884 579.479 270.894C579.479 331.273 557.237 386.456 520.5 428.698ZM337 0C437.612 0 525.323 55.2361 571.462 137.038L551.087 157.413C510.544 81.7629 430.728 30.3099 338.894 30.3099C286.322 30.3099 237.687 47.1727 198.105 75.7846L184.066 62.6539C187.195 56.9639 189.207 50.5849 189.81 43.8056C232.101 16.1067 282.67 0 337 0Z" fill="black"/>
<path d="M138.077 87.9151L138.135 86.9168L137.659 86.8891L137.338 87.2418L138.077 87.9151ZM106.649 408L105.794 408.517L106.085 409H106.649V408ZM141.174 408V409H143.087L141.995 407.429L141.174 408ZM160 110.026L160.743 110.695L161 110.409V110.026H160ZM160 84.2191H161V82.719L159.615 83.2961L160 84.2191ZM163.662 474.714L163.191 473.831L161.889 474.526L163.017 475.478L163.662 474.714ZM190.595 460.349L191.212 459.562L190.699 459.16L190.124 459.467L190.595 460.349ZM488.143 491.556L488.705 492.382L489.583 491.785L488.935 490.945L488.143 491.556ZM472.359 471.095L473.151 470.484L472.58 469.745L471.804 470.264L472.359 471.095ZM520.5 465.696H519.5V467.997L521.182 466.427L520.5 465.696ZM520.5 428.698L519.745 428.042L519.5 428.324V428.698H520.5ZM603.418 231.582L604.409 231.444L604.132 229.454L602.711 230.875L603.418 231.582ZM579.024 255.976L578.317 255.269L577.998 255.588L578.026 256.037L579.024 255.976ZM571.462 137.038L572.169 137.745L572.706 137.208L572.333 136.546L571.462 137.038ZM551.087 157.413L550.205 157.886L550.842 159.073L551.794 158.12L551.087 157.413ZM198.105 75.7846L197.422 76.5149L198.024 77.0775L198.691 76.595L198.105 75.7846ZM184.066 62.6539L183.19 62.172L182.815 62.8532L183.383 63.3842L184.066 62.6539ZM189.81 43.8056L189.262 42.9691L188.856 43.2345L188.813 43.7171L189.81 43.8056ZM69 269C69 199.514 95.4429 136.207 138.817 88.5885L137.338 87.2418C93.642 135.214 67 198.997 67 269H69ZM107.505 407.483C83.0654 367.068 69 319.678 69 269H67C67 320.053 81.1706 367.8 105.794 408.517L107.505 407.483ZM141.174 407H106.649V409H141.174V407ZM97.3099 270.894C97.3099 322.058 113.216 369.51 140.353 408.571L141.995 407.429C115.084 368.693 99.3099 321.637 99.3099 270.894H97.3099ZM159.257 109.357C120.747 152.154 97.3099 208.788 97.3099 270.894H99.3099C99.3099 209.301 122.551 153.139 160.743 110.695L159.257 109.357ZM159 84.2191V110.026H161V84.2191H159ZM141 89C147.872 89 154.422 87.6271 160.385 85.1422L159.615 83.2961C153.892 85.6811 147.603 87 141 87V89ZM138.019 88.9135C139.005 88.9709 139.999 89 141 89V87C140.038 87 139.083 86.972 138.135 86.9168L138.019 88.9135ZM164.132 475.596L191.065 461.232L190.124 459.467L163.191 473.831L164.132 475.596ZM337 537C271.204 537 210.949 513.291 164.307 473.949L163.017 475.478C210.006 515.113 270.715 539 337 539V537ZM487.58 490.729C444.663 519.932 392.826 537 337 537V539C393.24 539 445.467 521.804 488.705 492.382L487.58 490.729ZM471.567 471.706L487.351 492.166L488.935 490.945L473.151 470.484L471.567 471.706ZM338.894 512.479C388.472 512.479 434.565 497.544 472.915 471.927L471.804 470.264C433.772 495.668 388.065 510.479 338.894 510.479V512.479ZM189.978 461.136C231.012 493.301 282.715 512.479 338.894 512.479V510.479C283.178 510.479 231.906 491.461 191.212 459.562L189.978 461.136ZM521.5 465.696V428.698H519.5V465.696H521.5ZM605 269C605 346.35 572.232 416.046 519.818 464.965L521.182 466.427C573.985 417.145 607 346.927 607 269H605ZM602.428 231.719C604.123 243.903 605 256.349 605 269H607C607 256.256 606.117 243.718 604.409 231.444L602.428 231.719ZM579.731 256.683L604.126 232.289L602.711 230.875L578.317 255.269L579.731 256.683ZM580.479 270.894C580.479 265.864 580.325 260.869 580.022 255.915L578.026 256.037C578.326 260.951 578.479 265.905 578.479 270.894H580.479ZM521.255 429.354C558.144 386.937 580.479 331.523 580.479 270.894H578.479C578.479 331.022 556.33 385.975 519.745 428.042L521.255 429.354ZM572.333 136.546C526.024 54.4433 437.987 -1 337 -1V1C437.237 1 524.622 56.0288 570.591 137.529L572.333 136.546ZM551.794 158.12L572.169 137.745L570.755 136.331L550.38 156.706L551.794 158.12ZM338.894 31.3099C430.345 31.3099 509.83 82.5472 550.205 157.886L551.968 156.941C511.258 80.9786 431.111 29.3099 338.894 29.3099V31.3099ZM198.691 76.595C238.108 48.1022 286.539 31.3099 338.894 31.3099V29.3099C286.104 29.3099 237.266 46.2431 197.519 74.9741L198.691 76.595ZM183.383 63.3842L197.422 76.5149L198.788 75.0542L184.749 61.9236L183.383 63.3842ZM188.813 43.7171C188.224 50.355 186.254 56.6004 183.19 62.172L184.942 63.1358C188.137 57.3274 190.191 50.8148 190.806 43.8941L188.813 43.7171ZM337 -1C282.469 -1 231.711 15.1668 189.262 42.9691L190.357 44.6422C232.491 17.0466 282.87 1 337 1V-1Z" fill="black" mask="url(#path-4-inside-1_21_2)"/>
<path d="M57.7809 347.281L72.8099 362.31C52.9052 388.096 45.1448 409.349 52.9124 422.803C72.8955 457.414 177.099 416.969 312.281 347.281L334.154 369.154C171.834 454.771 30.4629 490.797 6.63298 449.522C-5.43662 428.617 14.7437 391.514 57.7809 347.281Z" fill="black"/>
<path d="M533.5 242.813C631.053 168.1 687.12 98.9794 668.788 67.2272C656.024 45.1199 609.539 45.1891 544.177 63.1767L561.728 80.7278C593.171 76.7156 614.866 80.7103 622.508 93.9468C636.472 118.134 588.384 155.664 521.635 211.285L533.5 242.813Z" fill="black"/>
<path d="M57.7809 347.281L72.8099 362.31C52.9052 388.096 45.1448 409.349 52.9124 422.803C72.8955 457.414 177.099 416.969 312.281 347.281L334.154 369.154C171.834 454.771 30.4629 490.797 6.63298 449.522C-5.43662 428.617 14.7437 391.514 57.7809 347.281Z" stroke="black" stroke-width="6"/>
<path d="M533.5 242.813C631.053 168.1 687.12 98.9794 668.788 67.2272C656.024 45.1199 609.539 45.1891 544.177 63.1767L561.728 80.7278C593.171 76.7156 614.866 80.7103 622.508 93.9468C636.472 118.134 588.384 155.664 521.635 211.285L533.5 242.813Z" stroke="black" stroke-width="6"/>
</svg>
